<svg viewBox="0 0 600 600" xmlns="http://www.w3.org/2000/svg">
  <defs>
    <filter id="r" x="-20%" y="-20%" width="140%" height="140%"><feTurbulence type="fractalNoise" baseFrequency="0.013" numOctaves="2" seed="21" result="n"/><feDisplacementMap in="SourceGraphic" in2="n" scale="7"/></filter>
    <filter id="r2" x="-20%" y="-20%" width="140%" height="140%"><feTurbulence type="fractalNoise" baseFrequency="0.022" numOctaves="2" seed="6" result="n"/><feDisplacementMap in="SourceGraphic" in2="n" scale="5"/></filter>
    <filter id="g"><feTurbulence type="fractalNoise" baseFrequency="0.85" numOctaves="2" result="x"/><feColorMatrix in="x" type="saturate" values="0"/><feComponentTransfer><feFuncA type="linear" slope="0.07"/></feComponentTransfer></filter>
  </defs>
  <rect width="600" height="600" fill="#a6d6c2"/>
  <rect x="90" y="120" width="420" height="360" fill="#f4d24a" filter="url(#r)" transform="rotate(1.4 300 300)"/>
  <!-- sound waves -->
  <g filter="url(#r2)" fill="none" stroke="#3a55a0" stroke-width="3.5" stroke-linecap="round" opacity="0.85">
    <path d="M300 300 q40 -50 0 -110 M300 300 q70 -60 0 -150"/>
    <path d="M300 300 q-40 50 0 110 M300 300 q-70 60 0 150"/>
  </g>
  <!-- two violins (loose) -->
  <g filter="url(#r)" fill="none" stroke="#e0392b" stroke-width="4.5" stroke-linecap="round" stroke-linejoin="round">
    <g transform="rotate(-16 220 320)">
      <path d="M200 250 q-30 16 -28 56 q-2 18 14 26 q-18 10 -16 40 q2 36 36 40 q34 -4 36 -40 q2 -30 -16 -40 q16 -8 14 -26 q2 -40 -28 -56 q-12 -5 -26 0z"/>
      <line x1="213" y1="250" x2="213" y2="180"/><path d="M213 180 q-12 -8 -4 -18"/>
      <line x1="206" y1="300" x2="208" y2="372"/><line x1="220" y1="300" x2="218" y2="372"/>
    </g>
    <g transform="rotate(14 400 330)">
      <path d="M382 262 q-30 16 -28 56 q-2 18 14 26 q-18 10 -16 40 q2 36 36 40 q34 -4 36 -40 q2 -30 -16 -40 q16 -8 14 -26 q2 -40 -28 -56 q-12 -5 -26 0z"/>
      <line x1="395" y1="262" x2="395" y2="192"/><path d="M395 192 q-12 -8 -4 -18"/>
    </g>
  </g>
  <!-- drum -->
  <g filter="url(#r2)" fill="none" stroke="#3a55a0" stroke-width="4" stroke-linecap="round">
    <ellipse cx="300" cy="468" rx="80" ry="22"/>
    <path d="M220 468 l0 36 q80 24 160 0 l0 -36"/>
    <path d="M236 478 l128 0" opacity="0.5"/>
  </g>
  <rect width="600" height="600" filter="url(#g)" opacity="0.5"/>
</svg>
