<svg viewBox="0 0 600 600" xmlns="http://www.w3.org/2000/svg">
  <defs>
    <filter id="r" x="-20%" y="-20%" width="140%" height="140%"><feTurbulence type="fractalNoise" baseFrequency="0.013" numOctaves="2" seed="31" result="n"/><feDisplacementMap in="SourceGraphic" in2="n" scale="7"/></filter>
    <filter id="r2" x="-20%" y="-20%" width="140%" height="140%"><feTurbulence type="fractalNoise" baseFrequency="0.022" numOctaves="2" seed="9" result="n"/><feDisplacementMap in="SourceGraphic" in2="n" scale="5"/></filter>
    <filter id="g"><feTurbulence type="fractalNoise" baseFrequency="0.85" numOctaves="2" result="x"/><feColorMatrix in="x" type="saturate" values="0"/><feComponentTransfer><feFuncA type="linear" slope="0.07"/></feComponentTransfer></filter>
  </defs>
  <rect width="600" height="600" fill="#f2cf73"/>
  <rect x="90" y="120" width="420" height="360" fill="#ef9d6a" filter="url(#r)" transform="rotate(-1.3 300 300)"/>
  <!-- big sun -->
  <g filter="url(#r)" stroke="#e0392b" stroke-width="5" fill="none" stroke-linecap="round">
    <circle cx="300" cy="285" r="92"/>
    <g stroke-width="6">
      <line x1="300" y1="150" x2="300" y2="178"/><line x1="300" y1="392" x2="300" y2="420"/>
      <line x1="165" y1="285" x2="193" y2="285"/><line x1="407" y1="285" x2="435" y2="285"/>
      <line x1="204" y1="189" x2="224" y2="209"/><line x1="376" y1="361" x2="396" y2="381"/>
      <line x1="204" y1="381" x2="224" y2="361"/><line x1="376" y1="209" x2="396" y2="189"/>
    </g>
  </g>
  <!-- maracas -->
  <g filter="url(#r2)" stroke="#3a55a0" stroke-width="4" fill="none" stroke-linecap="round">
    <g transform="rotate(-18 175 470)"><ellipse cx="175" cy="450" rx="26" ry="32"/><line x1="175" y1="482" x2="175" y2="525"/></g>
    <g transform="rotate(16 430 470)"><ellipse cx="430" cy="450" rx="26" ry="32"/><line x1="430" y1="482" x2="430" y2="525"/></g>
  </g>
  <!-- palm leaf -->
  <g filter="url(#r2)" stroke="#3a7a4a" stroke-width="3.5" fill="none" stroke-linecap="round">
    <path d="M470 130 q40 50 36 120"/>
    <path d="M474 150 q26 4 40 -6 M480 175 q26 6 42 -2 M488 200 q24 8 42 4 M494 225 q22 8 40 8"/>
    <path d="M474 150 q-22 8 -36 0 M480 175 q-22 10 -38 4 M488 200 q-20 12 -38 10"/>
  </g>
  <rect width="600" height="600" filter="url(#g)" opacity="0.5"/>
</svg>
