<svg viewBox="0 0 600 600" xmlns="http://www.w3.org/2000/svg">
  <defs>
    <filter id="r" x="-20%" y="-20%" width="140%" height="140%"><feTurbulence type="fractalNoise" baseFrequency="0.013" numOctaves="2" seed="51" result="n"/><feDisplacementMap in="SourceGraphic" in2="n" scale="7"/></filter>
    <filter id="r2" x="-20%" y="-20%" width="140%" height="140%"><feTurbulence type="fractalNoise" baseFrequency="0.022" numOctaves="2" seed="8" result="n"/><feDisplacementMap in="SourceGraphic" in2="n" scale="5"/></filter>
    <filter id="g"><feTurbulence type="fractalNoise" baseFrequency="0.85" numOctaves="2" result="x"/><feColorMatrix in="x" type="saturate" values="0"/><feComponentTransfer><feFuncA type="linear" slope="0.07"/></feComponentTransfer></filter>
  </defs>
  <rect width="600" height="600" fill="#ef9f86"/>
  <rect x="90" y="120" width="420" height="360" fill="#a9cdd6" filter="url(#r)" transform="rotate(-1.6 300 300)"/>
  <!-- motion lines -->
  <g filter="url(#r2)" stroke="#f4d24a" stroke-width="5" stroke-linecap="round" opacity="0.9">
    <line x1="70" y1="180" x2="170" y2="172"/><line x1="60" y1="230" x2="150" y2="224"/><line x1="430" y1="420" x2="540" y2="412"/><line x1="450" y1="470" x2="545" y2="464"/>
  </g>
  <!-- guitar -->
  <g filter="url(#r)" fill="none" stroke="#3a55a0" stroke-width="4.5" stroke-linecap="round" stroke-linejoin="round">
    <g transform="rotate(-18 360 330)">
      <path d="M360 250 q-46 6 -50 56 q-4 36 26 46 q-34 12 -30 56 q4 46 54 50 q50 -4 54 -50 q4 -44 -30 -56 q30 -10 26 -46 q-4 -50 -50 -56z"/>
      <circle cx="360" cy="356" r="20"/>
      <line x1="360" y1="250" x2="360" y2="160"/><rect x="351" y="140" width="18" height="22" rx="3"/>
    </g>
  </g>
  <!-- violin -->
  <g filter="url(#r)" fill="none" stroke="#e0392b" stroke-width="4" stroke-linecap="round" stroke-linejoin="round">
    <g transform="rotate(20 200 380)">
      <path d="M188 330 q-26 12 -24 46 q-2 16 12 22 q-15 9 -13 34 q2 30 30 33 q28 -3 30 -33 q2 -25 -13 -34 q14 -6 12 -22 q2 -34 -24 -46 q-10 -4 -20 0z"/>
      <line x1="198" y1="330" x2="198" y2="272"/><path d="M198 272 q-10 -7 -3 -15"/>
    </g>
  </g>
  <rect width="600" height="600" filter="url(#g)" opacity="0.5"/>
</svg>
