<svg viewBox="0 0 600 600" xmlns="http://www.w3.org/2000/svg">
  <defs>
    <filter id="r" x="-20%" y="-20%" width="140%" height="140%"><feTurbulence type="fractalNoise" baseFrequency="0.013" numOctaves="2" seed="61" result="n"/><feDisplacementMap in="SourceGraphic" in2="n" scale="7"/></filter>
    <filter id="r2" x="-20%" y="-20%" width="140%" height="140%"><feTurbulence type="fractalNoise" baseFrequency="0.022" numOctaves="2" seed="2" result="n"/><feDisplacementMap in="SourceGraphic" in2="n" scale="5"/></filter>
    <filter id="g"><feTurbulence type="fractalNoise" baseFrequency="0.85" numOctaves="2" result="x"/><feColorMatrix in="x" type="saturate" values="0"/><feComponentTransfer><feFuncA type="linear" slope="0.07"/></feComponentTransfer></filter>
  </defs>
  <rect width="600" height="600" fill="#e0a39a"/>
  <rect x="95" y="120" width="410" height="360" fill="#f3ead0" filter="url(#r)" transform="rotate(-1.4 300 300)"/>
  <g filter="url(#r)" fill="none" stroke="#e0392b" stroke-width="5" stroke-linecap="round" stroke-linejoin="round">
    <path d="M300 410 q-110 -78 -110 -150 q0 -52 50 -52 q40 0 60 44 q20 -44 60 -44 q50 0 50 52 q0 72 -110 150z"/>
  </g>
  <g filter="url(#r2)" fill="none" stroke="#3a55a0" stroke-width="3.5" stroke-linecap="round">
    <path d="M300 230 q34 -34 8 -70 q-22 -30 6 -56"/>
    <circle cx="468" cy="160" r="20"/><path d="M452 168 a20 20 0 1 0 6 -26" fill="#3a55a0" fill-opacity="0.18"/>
  </g>
  <rect width="600" height="600" filter="url(#g)" opacity="0.5"/>
</svg>
