<svg viewBox="0 0 600 600" xmlns="http://www.w3.org/2000/svg">
  <defs>
    <filter id="r" x="-20%" y="-20%" width="140%" height="140%"><feTurbulence type="fractalNoise" baseFrequency="0.013" numOctaves="2" seed="91" result="n"/><feDisplacementMap in="SourceGraphic" in2="n" scale="7"/></filter>
    <filter id="r2" x="-20%" y="-20%" width="140%" height="140%"><feTurbulence type="fractalNoise" baseFrequency="0.022" numOctaves="2" seed="16" result="n"/><feDisplacementMap in="SourceGraphic" in2="n" scale="5"/></filter>
    <filter id="g"><feTurbulence type="fractalNoise" baseFrequency="0.85" numOctaves="2" result="x"/><feColorMatrix in="x" type="saturate" values="0"/><feComponentTransfer><feFuncA type="linear" slope="0.07"/></feComponentTransfer></filter>
  </defs>
  <rect width="600" height="600" fill="#bcd6a8"/>
  <rect x="95" y="120" width="410" height="360" fill="#f2b8c6" filter="url(#r)" transform="rotate(1.5 300 300)"/>
  <!-- sun -->
  <g filter="url(#r2)" stroke="#e0392b" stroke-width="5" fill="none" stroke-linecap="round"><circle cx="225" cy="245" r="46"/><g stroke-width="5"><line x1="225" y1="170" x2="225" y2="186"/><line x1="225" y1="304" x2="225" y2="320"/><line x1="150" y1="245" x2="166" y2="245"/><line x1="284" y1="245" x2="300" y2="245"/><line x1="175" y1="195" x2="187" y2="207"/><line x1="263" y1="283" x2="275" y2="295"/></g></g>
  <!-- moon -->
  <g filter="url(#r)" fill="none" stroke="#3a55a0" stroke-width="5" stroke-linecap="round">
    <path d="M420 250 a58 58 0 1 0 16 96 a44 44 0 0 1 -16 -96z"/>
  </g>
  <!-- sparkles -->
  <g filter="url(#r2)" stroke="#3a55a0" stroke-width="3.5" stroke-linecap="round">
    <g transform="translate(360 410)"><line x1="-12" y1="0" x2="12" y2="0"/><line x1="0" y1="-12" x2="0" y2="12"/></g>
    <g transform="translate(180 410)"><line x1="-9" y1="0" x2="9" y2="0"/><line x1="0" y1="-9" x2="0" y2="9"/></g>
  </g>
  <rect width="600" height="600" filter="url(#g)" opacity="0.5"/>
</svg>
