<svg viewBox="0 0 320 520" xmlns="http://www.w3.org/2000/svg">
  <defs>
    <filter id="r" x="-20%" y="-20%" width="140%" height="140%"><feTurbulence type="fractalNoise" baseFrequency="0.014" numOctaves="2" seed="4" result="n"/><feDisplacementMap in="SourceGraphic" in2="n" scale="3"/></filter>
  </defs>
  <g filter="url(#r)" stroke="#22323a" stroke-width="5" stroke-linejoin="round" stroke-linecap="round">
    <!-- legs -->
    <rect x="124" y="402" width="26" height="74" rx="6" fill="#8fa6b3"/>
    <rect x="172" y="402" width="26" height="74" rx="6" fill="#8fa6b3"/>
    <rect x="116" y="474" width="42" height="16" rx="5" fill="#22323a"/>
    <rect x="164" y="474" width="42" height="16" rx="5" fill="#22323a"/>
    <!-- arms -->
    <rect x="74" y="250" width="22" height="92" rx="9" fill="#8fa6b3"/>
    <rect x="226" y="250" width="22" height="92" rx="9" fill="#8fa6b3"/>
    <!-- body -->
    <rect x="98" y="240" width="126" height="170" rx="14" fill="#aebfc8"/>
    <!-- chest panel -->
    <rect x="124" y="276" width="74" height="56" rx="8" fill="#22323a"/>
    <circle cx="146" cy="304" r="9" fill="#5fd0e6" stroke="none"/>
    <circle cx="176" cy="304" r="9" fill="#f4d24a" stroke="none"/>
    <!-- neck -->
    <rect x="146" y="214" width="30" height="30" fill="#8fa6b3"/>
    <!-- head -->
    <rect x="104" y="138" width="114" height="86" rx="14" fill="#c2d2da"/>
    <!-- eye visor -->
    <rect x="120" y="160" width="82" height="30" rx="14" fill="#22323a"/>
    <circle cx="161" cy="175" r="11" fill="#5fd0e6" stroke="none"/>
    <circle cx="161" cy="175" r="4" fill="#eafdff" stroke="none"/>
    <!-- antenna -->
    <line x1="161" y1="138" x2="161" y2="104"/>
    <circle cx="161" cy="98" r="9" fill="#5fd0e6"/>
  </g>
</svg>
